<?xml version="1.0" ?><!DOCTYPE svg  PUBLIC '-//W3C//DTD SVG 1.1//EN'  'http://www.w3.org/Graphics/SVG/1.1/DTD/svg11.dtd'><svg height="2048px" style="shape-rendering:geometricPrecision; text-rendering:geometricPrecision; image-rendering:optimizeQuality; fill-rule:evenodd; clip-rule:evenodd" viewBox="0 0 2048 2048" width="2048px" xml:space="preserve" xmlns="http://www.w3.org/2000/svg" xmlns:xlink="http://www.w3.org/1999/xlink"><defs><style type="text/css">
   <![CDATA[
    .fil5 {fill:none}
    .fil1 {fill:#7CD3D3}
    .fil2 {fill:#AEE9C2}
    .fil3 {fill:#DC7594}
    .fil4 {fill:#FDD19A}
    .fil0 {fill:#333333;fill-rule:nonzero}
   ]]>
  </style></defs><g id="Layer_x0020_1"><g id="_510208536"><path class="fil0" d="M1670.44 1046.14l-638.562 363.567 -639.59 364.153 0.0236221 0.0401575c-7.67835,4.37126 -17.4496,1.69134 -21.8209,-5.98701 -1.69134,-2.97166 -2.32795,-6.25749 -2.02559,-9.42166l4.42205 -734.559 4.43032 -736 15.9378 0.0625985 -15.9992 -0.0968505c0.0531496,-8.83583 7.26024,-15.9555 16.0961,-15.9024 3.41103,0.0200788 6.56457,1.10787 9.15001,2.94213l633.995 371.144 635.169 371.83 0.0307087 -0.0519685c7.6252,4.46339 10.1882,14.2665 5.72481,21.8917 -1.69488,2.89488 -4.15866,5.05867 -6.9815,6.38741zm-654.311 335.818l615.592 -350.489 -611.349 -357.886 -611.346 -357.885 -4.26378 708.36 -4.26378 708.412 615.63 -350.511z" id="_510208824"/><polygon class="fil0" id="_510208776" points="556.223,365.635 1355.37,1202.75 1332.24,1224.75 533.099,387.635 "/><polygon class="fil0" id="_510208920" points="533.099,1659.7 1332.24,822.577 1355.37,844.576 556.223,1681.69 "/></g><polygon class="fil1" points="1140.28,1023.66 534.619,389.228 409.022,315.702 404.758,1024.06 400.494,1732.47 538.791,1653.73 "/><polygon class="fil2" points="1311.68,844.12 1020.37,673.587 634.642,447.781 1162.34,1000.55 "/><polygon class="fil3" points="1318.16,1210 1162.34,1046.78 635.456,1598.7 1016.12,1381.96 "/><polygon class="fil4" points="1631.72,1031.47 1339.98,860.691 1184.4,1023.66 1346.74,1193.72 "/></g><rect class="fil5" height="2048" width="2048"/></svg>